<?xml version="1.0" encoding="utf-8"?>
<!-- Generator: Adobe Illustrator 20.1.0, SVG Export Plug-In . SVG Version: 6.00 Build 0)  -->
<svg version="1.1" id="Layer_1" xmlns="http://www.w3.org/2000/svg" xmlns:xlink="http://www.w3.org/1999/xlink" x="0px" y="0px"
	 viewBox="0 0 40 40" style="enable-background:new 0 0 40 40;" xml:space="preserve">
<style type="text/css">
	.st0{fill:#0099FF;}
</style>
<g>
	<path class="st0" d="M35.5,37.6h-8.6c-0.7,0-1.3-0.3-1.7-0.8c-0.4-0.5-0.6-1.2-0.5-1.8c0-0.1,0-0.3,0-0.4c0-1.1-0.9-2.1-2.1-2.1
		s-2.1,0.9-2.1,2.1c0,0.1,0,0.3,0,0.4c0.1,0.7,0,1.3-0.5,1.8c-0.4,0.5-1,0.8-1.7,0.8h-6.9c-1.2,0-2.2-1-2.2-2.2v-6.3
		c-3.7,0.2-6.9-2.8-6.9-6.5s3.2-6.7,6.9-6.5v-4.6c0-1.2,1-2.2,2.2-2.2H16c0-0.1,0-0.2,0-0.4c0-3.6,2.9-6.5,6.5-6.5S29,5.3,29,8.9
		c0,0.1,0,0.2,0,0.4h6.4c1.2,0,2.2,1,2.2,2.2v6.9c0,0.7-0.3,1.3-0.8,1.7c-0.5,0.4-1.2,0.6-1.8,0.5l0,0c-0.6-0.1-1.2,0-1.7,0.4
		s-0.8,1-0.8,1.6s0.3,1.2,0.8,1.6s1.1,0.6,1.7,0.4c0.7-0.1,1.3,0,1.8,0.5c0.5,0.4,0.8,1,0.8,1.7v8.6C37.8,36.6,36.8,37.6,35.5,37.6z
		 M22.8,31.4c1.7,0,3.1,1.4,3.1,3.1c0,0.2,0,0.4-0.1,0.6c-0.1,0.4,0,0.7,0.2,1s0.6,0.4,0.9,0.4h8.6c0.7,0,1.2-0.5,1.2-1.2v-8.6
		c0-0.4-0.2-0.7-0.4-0.9c-0.3-0.2-0.7-0.3-1-0.2c-0.9,0.2-1.8-0.1-2.5-0.6c-0.7-0.6-1.1-1.5-1.1-2.4s0.4-1.8,1.1-2.4
		s1.6-0.8,2.5-0.6c0.4,0.1,0.7,0,1-0.2s0.4-0.6,0.4-0.9v-7c0-0.7-0.5-1.2-1.2-1.2H28l0.1-0.6c0-0.3,0.1-0.5,0.1-0.8
		c0-3-2.5-5.5-5.5-5.5s-5.5,2.5-5.5,5.5c0,0.3,0,0.5,0.1,0.8l0.1,0.6h-5.8c-0.7,0-1.2,0.6-1.2,1.2v5.8l-0.6-0.1
		c-0.3,0-0.5-0.1-0.8-0.1c-3,0-5.5,2.5-5.5,5.5S6,28.1,9,28.1c0.3,0,0.5,0,0.8-0.1l0.6-0.1v7.5c0,0.7,0.5,1.2,1.2,1.2h6.9
		c0.4,0,0.7-0.2,0.9-0.4c0.2-0.3,0.3-0.6,0.2-1c0-0.2-0.1-0.4-0.1-0.6C19.6,32.7,21,31.4,22.8,31.4z"/>
</g>
</svg>
